<svg id="Capa_1" enable-background="new 0 0 511.916 511.916" height="512" viewBox="0 0 511.916 511.916" width="512" xmlns="http://www.w3.org/2000/svg"><g id="XMLID_948_"><g id="XMLID_1127_"><path id="XMLID_1196_" d="m498.058 122.881c-2.377-4.984-8.343-7.098-13.331-4.722-4.984 2.377-7.099 8.346-4.722 13.331 22.342 46.85 12.68 103-24.044 139.723l-15.816 15.816c-6.382-2.827-13.103-4.873-19.988-6.095 8.536-9.683 13.731-22.378 13.731-36.271v-19.966c0-30.285-24.64-54.924-54.925-54.924s-54.924 24.639-54.924 54.924v19.966c0 13.896 5.198 26.595 13.738 36.279-13.924 2.481-26.888 8.312-37.856 16.78-4.461-20.114-22.429-35.206-43.866-35.206-21.421 0-39.378 15.069-43.857 35.16-10.955-8.458-23.915-14.27-37.86-16.742 8.537-9.683 13.732-22.379 13.732-36.272v-19.966c0-30.285-24.639-54.924-54.924-54.924s-54.924 24.639-54.924 54.924v19.966c0 13.892 5.195 26.587 13.73 36.27-6.946 1.232-13.726 3.304-20.157 6.169l-15.89-15.89c-23.197-23.196-35.972-54.038-35.972-86.842s12.774-63.646 35.972-86.842c23.196-23.196 54.037-35.971 86.842-35.971s63.646 12.775 86.842 35.971l19.273 19.274c3.906 3.905 10.236 3.905 14.143 0l19.273-19.274c36.724-36.724 92.875-46.386 139.726-24.042 4.984 2.376 10.953.264 13.331-4.721 2.377-4.985.264-10.953-4.722-13.331-54.481-25.984-119.775-14.75-162.478 27.952l-12.202 12.203-12.202-12.203c-26.974-26.974-62.837-41.829-100.984-41.829-38.146 0-74.01 14.855-100.984 41.829-55.683 55.683-55.683 146.286 0 201.969l164.379 164.378c13.3 13.3 30.983 20.625 49.792 20.625s36.492-7.325 49.792-20.625l164.379-164.379c42.7-42.698 53.933-107.992 27.953-162.472zm-154.019 101.817c0-19.257 15.667-34.924 34.924-34.924 19.258 0 34.925 15.667 34.925 34.924v19.966c0 19.257-15.667 34.924-34.925 34.924-19.257 0-34.924-15.667-34.924-34.924zm8.901 74.89h52.047c6.676 0 13.309 1.012 19.644 2.956l-92.773 92.774c-4.5-23.702-19.839-43.599-40.655-54.338 10.211-24.884 34.623-41.392 61.737-41.392zm-96.885-17.071c13.752 0 24.94 11.188 24.94 24.941s-11.188 24.941-24.94 24.941c-13.753 0-24.941-11.188-24.941-24.941s11.188-24.941 24.941-24.941zm-157.833-57.819c0-19.257 15.667-34.924 34.924-34.924s34.924 15.667 34.924 34.924v19.966c0 19.257-15.667 34.924-34.924 34.924s-34.924-15.667-34.924-34.924zm8.9 74.89h52.047c27.143 0 51.414 16.406 61.666 41.224-20.943 10.678-36.403 30.604-40.959 54.372l-92.585-92.585c6.392-1.982 13.092-3.011 19.831-3.011zm184.46 136.004c-9.522 9.522-22.183 14.767-35.649 14.767s-26.127-5.244-35.649-14.767l-21.807-21.807v-4.008c0-31.638 25.739-57.377 57.378-57.377 31.638 0 57.377 25.739 57.377 57.377v4.166z"/><path id="XMLID_1246_" d="m463.032 100.458c2.63 0 5.21-1.07 7.07-2.93 1.859-1.86 2.93-4.44 2.93-7.07s-1.07-5.21-2.93-7.07-4.44-2.93-7.07-2.93-5.21 1.07-7.07 2.93c-1.859 1.86-2.93 4.44-2.93 7.07s1.07 5.21 2.93 7.07c1.861 1.86 4.441 2.93 7.07 2.93z"/></g></g></svg>