<svg id="Layer_1" enable-background="new 0 0 512.002 512.002" height="512" viewBox="0 0 512.002 512.002" width="512" xmlns="http://www.w3.org/2000/svg"><g><g><path d="m356.001 307.004h-90v-22.792c4.346.9 8.733 1.348 13.101 1.348 16.984 0 33.616-6.675 45.89-18.949 16.292-16.293 22.717-40.257 16.767-62.542-.923-3.458-3.624-6.158-7.082-7.082-22.282-5.951-46.249.475-62.541 16.767-2.235 2.235-4.277 4.619-6.135 7.119v-41.433c44.937-4.991 80-43.196 80-89.441 0-49.626-40.374-90-90-90s-90 40.374-90 90c0 46.246 35.063 84.451 80 89.441v41.433c-1.857-2.5-3.899-4.884-6.134-7.119-16.293-16.292-40.257-22.718-62.542-16.767-3.458.923-6.158 3.624-7.082 7.082-5.95 22.284.475 46.248 16.767 62.541 12.275 12.275 28.905 18.949 45.891 18.949 4.366 0 8.755-.448 13.101-1.348v22.792h-90c-11.028 0-20 8.972-20 20v25c0 7.861 4.57 14.657 11.183 17.924l18.953 113.718c2.827 16.96 14.828 28.356 29.864 28.356h120c15.036 0 27.038-11.396 29.863-28.355l18.954-113.719c6.613-3.267 11.182-10.063 11.182-17.924v-25c0-11.027-8.972-19.999-20-19.999zm-69.723-79.106c9.829-9.829 23.704-14.458 37.316-12.745 1.717 13.616-2.916 27.487-12.745 37.316-9.829 9.828-23.702 14.458-37.316 12.744-1.716-13.614 2.916-27.486 12.745-37.315zm-47.809 37.316c-13.617 1.715-27.488-2.916-37.316-12.744-9.829-9.829-14.461-23.701-12.745-37.316 13.613-1.717 27.487 2.916 37.316 12.745 9.829 9.828 14.462 23.7 12.745 37.315zm-52.468-175.214c0-38.598 31.402-70 70-70s70 31.402 70 70-31.402 70-70 70-70-31.402-70-70zm140.135 390.359c-.895 5.371-4.086 11.643-10.135 11.643h-120c-6.049 0-9.241-6.272-10.136-11.644l-18.06-108.354h43.193c5.523 0 10-4.477 10-10s-4.477-10-10-10h-54.997v-25h200v25h-55.003c-5.523 0-10 4.477-10 10s4.477 10 10 10h43.199z"/><path d="m291.356 120.358c3.905-3.905 3.906-10.237 0-14.142-3.904-3.905-10.237-3.905-14.142 0-5.667 5.666-13.2 8.787-21.213 8.787s-15.547-3.121-21.214-8.787c-3.905-3.905-10.237-3.905-14.142 0s-3.905 10.237 0 14.142c9.444 9.443 22 14.644 35.355 14.644 13.356 0 25.913-5.2 35.356-14.644z"/><path d="m226 85.002c5.523 0 10-4.481 10-10.004s-4.477-10-10-10-10 4.477-10 10v.007c0 5.524 4.477 9.997 10 9.997z"/><path d="m286.002 85.002c5.523 0 10-4.481 10-10.004s-4.477-10-10-10-10 4.477-10 10v.007c0 5.524 4.477 9.997 10 9.997z"/><path d="m256.001 352.004h-.008c-5.523 0-9.996 4.477-9.996 10s4.481 10 10.004 10 10-4.477 10-10-4.477-10-10-10z"/></g></g></svg>